<svg xmlns="http://www.w3.org/2000/svg" width="233.61" height="258.698" viewBox="0 0 233.61 258.698">
  <path id="Edit-icon-SVG-098ujkdg" d="M72.318,228.574,52.3,234.165l5.306-20.3L67.362,183.3l35.52,35.488Zm43.748-16.553L74.161,170.115,187.678,56.6,229.584,98.5ZM256.779,71.276,239.56,88.5,218.591,67.559,197.654,46.622l17.251-17.251a29.636,29.636,0,0,1,41.874,0,29.569,29.569,0,0,1,0,41.906m2.51,193.992H39.817a7.069,7.069,0,1,0,0,14.138H259.289a7.069,7.069,0,0,0,0-14.138" transform="translate(-32.732 -20.709)"/>
</svg>
