<svg xmlns="http://www.w3.org/2000/svg" fill-rule="evenodd" stroke-linejoin="round" stroke-miterlimit="2" clip-rule="evenodd" viewBox="0 0 500 500" id="reply"><path d="M79.451,277.28L39.451,277.28L99.451,157.28L159.451,277.28L119.451,277.28L119.451,314.148C119.451,344.524 144.075,369.148 174.451,369.148L400.549,369.148C411.588,369.148 420.549,378.11 420.549,389.148C420.549,400.187 411.588,409.148 400.549,409.148L174.451,409.148C121.983,409.148 79.451,366.615 79.451,314.148L79.451,277.28ZM380.549,222.72L380.549,185.852C380.549,155.476 355.925,130.852 325.549,130.852L99.451,130.852C88.412,130.852 79.451,121.89 79.451,110.852C79.451,99.813 88.412,90.852 99.451,90.852L325.549,90.852C378.017,90.852 420.549,133.385 420.549,185.852L420.549,222.72L460.549,222.72L400.549,342.72L340.549,222.72L380.549,222.72Z"></path></svg>